<?xml version="1.0" encoding="utf-8" standalone="no"?>
<!DOCTYPE svg PUBLIC "-//W3C//DTD SVG 1.1//EN"
  "http://www.w3.org/Graphics/SVG/1.1/DTD/svg11.dtd">
<svg xmlns:xlink="http://www.w3.org/1999/xlink" width="547.2pt" height="284.4pt" viewBox="0 0 547.2 284.4" xmlns="http://www.w3.org/2000/svg" version="1.1">
 <metadata>
  <rdf:RDF xmlns:dc="http://purl.org/dc/elements/1.1/" xmlns:cc="http://creativecommons.org/ns#" xmlns:rdf="http://www.w3.org/1999/02/22-rdf-syntax-ns#">
   <cc:Work>
    <dc:type rdf:resource="http://purl.org/dc/dcmitype/StillImage"/>
    <dc:date>2026-09-07T00:50:18.774452</dc:date>
    <dc:format>image/svg+xml</dc:format>
    <dc:creator>
     <cc:Agent>
      <dc:title>Matplotlib v3.10.9, https://matplotlib.org/</dc:title>
     </cc:Agent>
    </dc:creator>
   </cc:Work>
  </rdf:RDF>
 </metadata>
 <defs>
  <style type="text/css">*{stroke-linejoin: round; stroke-linecap: butt}</style>
 </defs>
 <g id="figure_1">
  <g id="patch_1">
   <path d="M 0 284.4 
L 547.2 284.4 
L 547.2 0 
L 0 0 
z
" style="fill: #ffffff"/>
  </g>
  <g id="axes_1">
   <g id="patch_2">
    <path d="M 34.3728 237.24 
L 251.7552 237.24 
Q 261.3456 237.24 261.3456 232.38 
L 261.3456 57.42 
Q 261.3456 52.56 251.7552 52.56 
L 34.3728 52.56 
Q 24.7824 52.56 24.7824 57.42 
L 24.7824 232.38 
Q 24.7824 237.24 34.3728 237.24 
z
" clip-path="url(#pcac20446ea)" style="fill: #eaf3f8; stroke: #72a8c2; stroke-linejoin: miter"/>
   </g>
   <g id="patch_3">
    <path d="M 295.4448 237.24 
L 512.8272 237.24 
Q 522.4176 237.24 522.4176 232.38 
L 522.4176 57.42 
Q 522.4176 52.56 512.8272 52.56 
L 295.4448 52.56 
Q 285.8544 52.56 285.8544 57.42 
L 285.8544 232.38 
Q 285.8544 237.24 295.4448 237.24 
z
" clip-path="url(#pcac20446ea)" style="fill: #f8f2ea; stroke: #d6a56e; stroke-linejoin: miter"/>
   </g>
   <g id="patch_4">
    <path d="M 93.78 139.5 
C 93.78 137.647844 92.895101 135.822932 91.201164 134.181711 
C 89.507227 132.54049 87.054084 131.131241 84.052043 130.07478 
" clip-path="url(#pcac20446ea)" style="fill: none; stroke: #0072b2; stroke-linejoin: miter"/>
   </g>
   <g id="patch_5">
    <path d="M 191.419957 130.07478 
C 188.417916 131.131241 185.964773 132.54049 184.270836 134.181711 
C 182.576899 135.822932 181.692 137.647844 181.692 139.5 
" clip-path="url(#pcac20446ea)" style="fill: none; stroke: #0072b2; stroke-linejoin: miter"/>
   </g>
   <g id="patch_6">
    <path d="M 41.832 181.35 
L 244.296 181.35 
L 244.296 169.74 
L 41.832 169.74 
z
" clip-path="url(#pcac20446ea)" style="fill: #ffffff; stroke: #72a8c2; stroke-width: 0.7; stroke-linejoin: miter"/>
   </g>
   <g id="patch_7">
    <path d="M 41.832 197.55 
L 244.296 197.55 
L 244.296 185.94 
L 41.832 185.94 
z
" clip-path="url(#pcac20446ea)" style="fill: #ffffff; stroke: #72a8c2; stroke-width: 0.7; stroke-linejoin: miter"/>
   </g>
   <g id="patch_8">
    <path d="M 361.205666 96.929269 
Q 356.184019 129.374879 351.162371 161.820489 
" clip-path="url(#pcac20446ea)" style="fill: none; opacity: 0.75; stroke-dasharray: 2.775,1.2; stroke-dashoffset: 0; stroke: #a45b18; stroke-width: 0.75; stroke-linecap: round"/>
   </g>
   <g id="patch_9">
    <path d="M 320.515277 185.581769 
Q 334.872676 175.274515 349.230075 164.96726 
" clip-path="url(#pcac20446ea)" style="fill: none; opacity: 0.75; stroke-dasharray: 2.775,1.2; stroke-dashoffset: 0; stroke: #a45b18; stroke-width: 0.75; stroke-linecap: round"/>
   </g>
   <g id="patch_10">
    <path d="M 402.298646 185.958572 
Q 377.495718 175.274878 352.692789 164.591184 
" clip-path="url(#pcac20446ea)" style="fill: none; opacity: 0.75; stroke-dasharray: 2.775,1.2; stroke-dashoffset: 0; stroke: #a45b18; stroke-width: 0.75; stroke-linecap: round"/>
   </g>
   <g id="patch_11">
    <path d="M 313.56 213.75 
L 510.696 213.75 
L 510.696 197.55 
L 313.56 197.55 
z
" clip-path="url(#pcac20446ea)" style="fill: #ffffff; stroke: #d6a56e; stroke-width: 0.75; stroke-linejoin: miter"/>
   </g>
   <g id="PathCollection_1">
    <defs>
     <path id="md7ec059604" d="M 0 2.345208 
C 0.621956 2.345208 1.218523 2.098102 1.658312 1.658312 
C 2.098102 1.218523 2.345208 0.621956 2.345208 0 
C 2.345208 -0.621956 2.098102 -1.218523 1.658312 -1.658312 
C 1.218523 -2.098102 0.621956 -2.345208 0 -2.345208 
C -0.621956 -2.345208 -1.218523 -2.098102 -1.658312 -1.658312 
C -2.098102 -1.218523 -2.345208 -0.621956 -2.345208 0 
C -2.345208 0.621956 -2.098102 1.218523 -1.658312 1.658312 
C -1.218523 2.098102 -0.621956 2.345208 0 2.345208 
z
" style="stroke: #0072b2"/>
    </defs>
    <g clip-path="url(#pcac20446ea)">
     <use xlink:href="#md7ec059604" x="321.552" y="221.85" style="fill: #0072b2; stroke: #0072b2"/>
    </g>
   </g>
   <g id="PathCollection_2">
    <defs>
     <path id="mcc4ead4d4c" d="M 0 2.345208 
C 0.621956 2.345208 1.218523 2.098102 1.658312 1.658312 
C 2.098102 1.218523 2.345208 0.621956 2.345208 0 
C 2.345208 -0.621956 2.098102 -1.218523 1.658312 -1.658312 
C 1.218523 -2.098102 0.621956 -2.345208 0 -2.345208 
C -0.621956 -2.345208 -1.218523 -2.098102 -1.658312 -1.658312 
C -2.098102 -1.218523 -2.345208 -0.621956 -2.345208 0 
C -2.345208 0.621956 -2.098102 1.218523 -1.658312 1.658312 
C -1.218523 2.098102 -0.621956 2.345208 0 2.345208 
z
" style="stroke: #d55e00"/>
    </defs>
    <g clip-path="url(#pcac20446ea)">
     <use xlink:href="#mcc4ead4d4c" x="380.16" y="221.85" style="fill: #d55e00; stroke: #d55e00"/>
    </g>
   </g>
   <g id="patch_12">
    <path d="M 259.615626 142.2 
Q 272.26623 142.2 283.686997 142.2 
" clip-path="url(#pcac20446ea)" style="fill: none; stroke: #555555; stroke-width: 1.1; stroke-linecap: round"/>
    <path d="M 278.886997 139.8 
L 283.686997 142.2 
L 278.886997 144.6 
z
" clip-path="url(#pcac20446ea)" style="fill: #555555; stroke: #555555; stroke-width: 1.1; stroke-linecap: round"/>
   </g>
   <g id="line2d_1">
    <path d="M 71.136 139.5 
L 204.336 139.5 
" clip-path="url(#pcac20446ea)" style="fill: none; stroke: #666666; stroke-linecap: square"/>
   </g>
   <g id="line2d_2">
    <path d="M 71.136 139.5 
L 137.736 90.9 
" clip-path="url(#pcac20446ea)" style="fill: none; stroke: #1775a8; stroke-linecap: square"/>
   </g>
   <g id="line2d_3">
    <path d="M 204.336 139.5 
L 137.736 90.9 
" clip-path="url(#pcac20446ea)" style="fill: none; stroke: #1775a8; stroke-linecap: square"/>
   </g>
   <g id="line2d_4">
    <path d="M 71.136 139.5 
L 137.736 104.4 
" clip-path="url(#pcac20446ea)" style="fill: none; stroke-dasharray: 2.96,1.28; stroke-dashoffset: 0; stroke: #8fb9cc; stroke-width: 0.8"/>
   </g>
   <g id="line2d_5">
    <path d="M 204.336 139.5 
L 137.736 104.4 
" clip-path="url(#pcac20446ea)" style="fill: none; stroke-dasharray: 2.96,1.28; stroke-dashoffset: 0; stroke: #8fb9cc; stroke-width: 0.8"/>
   </g>
   <g id="line2d_6">
    <path d="M 361.512 94.95 
" clip-path="url(#pcac20446ea)" style="fill: none; stroke: #c9a77d; stroke-opacity: 0.7; stroke-width: 0.55; stroke-linecap: square"/>
   </g>
   <g id="line2d_7">
    <path d="M 350.856 117.9 
L 372.168 117.9 
" clip-path="url(#pcac20446ea)" style="fill: none; stroke: #c9a77d; stroke-opacity: 0.7; stroke-width: 0.55; stroke-linecap: square"/>
   </g>
   <g id="line2d_8">
    <path d="M 340.2 140.85 
L 361.512 140.85 
L 382.824 140.85 
" clip-path="url(#pcac20446ea)" style="fill: none; stroke: #c9a77d; stroke-opacity: 0.7; stroke-width: 0.55; stroke-linecap: square"/>
   </g>
   <g id="line2d_9">
    <path d="M 329.544 163.8 
L 350.856 163.8 
L 372.168 163.8 
L 393.48 163.8 
" clip-path="url(#pcac20446ea)" style="fill: none; stroke: #c9a77d; stroke-opacity: 0.7; stroke-width: 0.55; stroke-linecap: square"/>
   </g>
   <g id="line2d_10">
    <path d="M 318.888 186.75 
L 340.2 186.75 
L 361.512 186.75 
L 382.824 186.75 
L 404.136 186.75 
" clip-path="url(#pcac20446ea)" style="fill: none; stroke: #c9a77d; stroke-opacity: 0.7; stroke-width: 0.55; stroke-linecap: square"/>
   </g>
   <g id="text_1">
    <text style="font-weight: 700; font-size: 11.4px; font-family: 'Arial', 'Source Han Sans SC'; text-anchor: start" x="36.504" y="28.067438" transform="rotate(-0 36.504 28.067438)">Q2 两阶段参考建立与并行定位</text>
   </g>
   <g id="text_2">
    <text style="font-size: 8.4px; font-family: 'Arial', 'Source Han Sans SC'; text-anchor: start; fill: #444444" x="36.504" y="39.185438" transform="rotate(-0 36.504 39.185438)">先用两底角校准 FY01，再用三个角点服务十二架接收机。</text>
   </g>
   <g id="text_3">
    <text style="font-weight: 700; font-size: 9.6px; font-family: 'Arial', 'Source Han Sans SC'; text-anchor: start; fill: #0072b2" x="41.832" y="67.95" transform="rotate(-0 41.832 67.95)">阶段 1 · 校准公共参考</text>
   </g>
   <g id="text_4">
    <text style="font-weight: 700; font-size: 9.6px; font-family: 'Arial', 'Source Han Sans SC'; text-anchor: start; fill: #a45b18" x="302.904" y="67.95" transform="rotate(-0 302.904 67.95)">阶段 2 · 三参考广播与并行反馈</text>
   </g>
   <g id="PathCollection_3">
    <defs>
     <path id="mfca86df501" d="M 0 3.278719 
C 0.869527 3.278719 1.703557 2.933253 2.318405 2.318405 
C 2.933253 1.703557 3.278719 0.869527 3.278719 0 
C 3.278719 -0.869527 2.933253 -1.703557 2.318405 -2.318405 
C 1.703557 -2.933253 0.869527 -3.278719 0 -3.278719 
C -0.869527 -3.278719 -1.703557 -2.933253 -2.318405 -2.318405 
C -2.933253 -1.703557 -3.278719 -0.869527 -3.278719 0 
C -3.278719 0.869527 -2.933253 1.703557 -2.318405 2.318405 
C -1.703557 2.933253 -0.869527 3.278719 0 3.278719 
z
" style="stroke: #0072b2"/>
    </defs>
    <g clip-path="url(#pcac20446ea)">
     <use xlink:href="#mfca86df501" x="71.136" y="139.5" style="fill: #0072b2; stroke: #0072b2"/>
     <use xlink:href="#mfca86df501" x="204.336" y="139.5" style="fill: #0072b2; stroke: #0072b2"/>
    </g>
   </g>
   <g id="PathCollection_4">
    <defs>
     <path id="mf9816e64a8" d="M 0 3.278719 
C 0.869527 3.278719 1.703557 2.933253 2.318405 2.318405 
C 2.933253 1.703557 3.278719 0.869527 3.278719 0 
C 3.278719 -0.869527 2.933253 -1.703557 2.318405 -2.318405 
C 1.703557 -2.933253 0.869527 -3.278719 0 -3.278719 
C -0.869527 -3.278719 -1.703557 -2.933253 -2.318405 -2.318405 
C -2.933253 -1.703557 -3.278719 -0.869527 -3.278719 0 
C -3.278719 0.869527 -2.933253 1.703557 -2.318405 2.318405 
C -1.703557 2.933253 -0.869527 3.278719 0 3.278719 
z
" style="stroke: #d55e00"/>
    </defs>
    <g clip-path="url(#pcac20446ea)">
     <use xlink:href="#mf9816e64a8" x="137.736" y="90.9" style="fill: #d55e00; stroke: #d55e00"/>
    </g>
   </g>
   <g id="PathCollection_5">
    <defs>
     <path id="m342aad8d9e" d="M -3.640055 3.640055 
L 3.640055 -3.640055 
M -3.640055 -3.640055 
L 3.640055 3.640055 
" style="stroke: #555555; stroke-width: 1.2"/>
    </defs>
    <g clip-path="url(#pcac20446ea)">
     <use xlink:href="#m342aad8d9e" x="137.736" y="104.4" style="fill: #555555; stroke: #555555; stroke-width: 1.2"/>
    </g>
   </g>
   <g id="text_5">
    <text style="font-weight: 700; font-size: 9.2px; font-family: 'Arial', 'Source Han Sans SC'; text-anchor: start; fill: #0072b2" x="88.7184" y="130.05" transform="rotate(-0 88.7184 130.05)">α</text>
   </g>
   <g id="text_6">
    <text style="font-weight: 700; font-size: 9.2px; font-family: 'Arial', 'Source Han Sans SC'; text-anchor: start; fill: #0072b2" x="186.7536" y="130.05" transform="rotate(-0 186.7536 130.05)">β</text>
   </g>
   <g id="text_7">
    <text style="font-size: 7.3px; font-family: 'Arial', 'Source Han Sans SC'; text-anchor: middle" x="71.136" y="151.65" transform="rotate(-0 71.136 151.65)">FY11</text>
   </g>
   <g id="text_8">
    <text style="font-size: 7.3px; font-family: 'Arial', 'Source Han Sans SC'; text-anchor: middle" x="204.336" y="151.65" transform="rotate(-0 204.336 151.65)">FY15</text>
   </g>
   <g id="text_9">
    <text style="font-size: 7.3px; font-family: 'Arial', 'Source Han Sans SC'; text-anchor: start; fill: #a45b18" x="152.1216" y="87.66" transform="rotate(-0 152.1216 87.66)">FY01</text>
   </g>
   <g id="text_10">
    <text style="font-size: 7px; font-family: 'Arial', 'Source Han Sans SC'; text-anchor: start; fill: #555555" x="152.1216" y="107.64" transform="rotate(-0 152.1216 107.64)">目标 C0</text>
   </g>
   <g id="text_11">
    <text style="font-size: 7px; font-family: 'Arial', 'Source Han Sans SC'; text-anchor: start; fill: #555555" x="41.832" y="162.45" transform="rotate(-0 41.832 162.45)">底角弧线给出 α、β；虚线为目标参考。</text>
   </g>
   <g id="text_12">
    <text style="font-size: 6.9px; font-family: 'Arial', 'Source Han Sans SC'; text-anchor: middle" x="143.064" y="177.454898" transform="rotate(-0 143.064 177.454898)">槽 1：FY01 / FY15 发射 → FY11 接收，观测 α</text>
   </g>
   <g id="text_13">
    <text style="font-size: 6.9px; font-family: 'Arial', 'Source Han Sans SC'; text-anchor: middle" x="143.064" y="193.971328" transform="rotate(-0 143.064 193.971328)">槽 2：FY01 / FY11 发射 → FY15 接收，观测 β</text>
   </g>
   <g id="text_14">
    <!-- $\hat{C}(\alpha,\beta)$ -->
    <g style="fill: #444444" transform="translate(41.832 224.55)">
     <text>
      <tspan x="4.8228" y="-0.0375" style="font-size: 7.2px; font-family: 'STIXGeneral'; fill: #444444">(</tspan>
      <tspan x="4.98695" y="-2.15625" style="font-size: 7.2px; font-family: 'STIXGeneral'; fill: #444444">̂</tspan>
      <tspan x="11.428085" y="-0.0375" style="font-size: 7.2px; font-family: 'STIXGeneral'; fill: #444444">,</tspan>
      <tspan x="18.156982" y="-0.0375" style="font-size: 7.2px; font-family: 'STIXGeneral'; fill: #444444">)</tspan>
      <tspan x="0" y="-0.0375" style="font-style: italic; font-size: 7.2px; font-family: 'STIXGeneral'; fill: #444444">𝘊</tspan>
      <tspan x="7.216232" y="-0.0375" style="font-style: italic; font-size: 7.2px; font-family: 'STIXNonUnicode'; fill: #444444"></tspan>
      <tspan x="14.311691" y="-0.0375" style="font-style: italic; font-size: 7.2px; font-family: 'STIXNonUnicode'; fill: #444444"></tspan>
     </text>
    </g>
   </g>
   <g id="text_15">
    <text style="font-size: 6.9px; font-family: 'Arial', 'Source Han Sans SC'; text-anchor: start; fill: #444444" x="79.128" y="223.956117" transform="rotate(-0 79.128 223.956117)">→ 反馈 FY01；满足锁定条件后进入阶段 2。</text>
   </g>
   <g id="PathCollection_6">
    <defs>
     <path id="m78c6928bed" d="M 0 2.44949 
C 0.649612 2.44949 1.272706 2.191396 1.732051 1.732051 
C 2.191396 1.272706 2.44949 0.649612 2.44949 0 
C 2.44949 -0.649612 2.191396 -1.272706 1.732051 -1.732051 
C 1.272706 -2.191396 0.649612 -2.44949 0 -2.44949 
C -0.649612 -2.44949 -1.272706 -2.191396 -1.732051 -1.732051 
C -2.191396 -1.272706 -2.44949 -0.649612 -2.44949 0 
C -2.44949 0.649612 -2.191396 1.272706 -1.732051 1.732051 
C -1.272706 2.191396 -0.649612 2.44949 0 2.44949 
z
" style="stroke: #d55e00"/>
    </defs>
    <g clip-path="url(#pcac20446ea)">
     <use xlink:href="#m78c6928bed" x="350.856" y="117.9" style="fill: #d55e00; stroke: #d55e00"/>
     <use xlink:href="#m78c6928bed" x="372.168" y="117.9" style="fill: #d55e00; stroke: #d55e00"/>
     <use xlink:href="#m78c6928bed" x="340.2" y="140.85" style="fill: #d55e00; stroke: #d55e00"/>
     <use xlink:href="#m78c6928bed" x="361.512" y="140.85" style="fill: #d55e00; stroke: #d55e00"/>
     <use xlink:href="#m78c6928bed" x="382.824" y="140.85" style="fill: #d55e00; stroke: #d55e00"/>
     <use xlink:href="#m78c6928bed" x="329.544" y="163.8" style="fill: #d55e00; stroke: #d55e00"/>
     <use xlink:href="#m78c6928bed" x="350.856" y="163.8" style="fill: #d55e00; stroke: #d55e00"/>
     <use xlink:href="#m78c6928bed" x="372.168" y="163.8" style="fill: #d55e00; stroke: #d55e00"/>
     <use xlink:href="#m78c6928bed" x="393.48" y="163.8" style="fill: #d55e00; stroke: #d55e00"/>
     <use xlink:href="#m78c6928bed" x="340.2" y="186.75" style="fill: #d55e00; stroke: #d55e00"/>
     <use xlink:href="#m78c6928bed" x="361.512" y="186.75" style="fill: #d55e00; stroke: #d55e00"/>
     <use xlink:href="#m78c6928bed" x="382.824" y="186.75" style="fill: #d55e00; stroke: #d55e00"/>
    </g>
   </g>
   <g id="text_16">
    <text style="font-size: 6.8px; font-family: 'Arial', 'Source Han Sans SC'; text-anchor: start; fill: #0072b2" x="367.9056" y="87.39" transform="rotate(-0 367.9056 87.39)">FY01</text>
   </g>
   <g id="text_17">
    <text style="font-size: 6.8px; font-family: 'Arial', 'Source Han Sans SC'; text-anchor: start; fill: #0072b2" x="325.2816" y="193.5" transform="rotate(-0 325.2816 193.5)">FY11</text>
   </g>
   <g id="text_18">
    <text style="font-size: 6.8px; font-family: 'Arial', 'Source Han Sans SC'; text-anchor: start; fill: #0072b2" x="410.5296" y="193.5" transform="rotate(-0 410.5296 193.5)">FY15</text>
   </g>
   <g id="text_19">
    <text style="font-size: 6.8px; font-family: 'Arial', 'Source Han Sans SC'; text-anchor: start; fill: #a45b18" x="358.848" y="158.4" transform="rotate(-0 358.848 158.4)">FY08（示例）</text>
   </g>
   <g id="text_20">
    <text style="font-weight: 700; font-size: 8px; font-family: 'Arial', 'Source Han Sans SC'; text-anchor: start; fill: #a45b18" x="422.784" y="93.6" transform="rotate(-0 422.784 93.6)">三参考广播</text>
   </g>
   <g id="text_21">
    <text style="font-size: 7px; font-family: 'Arial', 'Source Han Sans SC'; text-anchor: start; fill: #555555" x="422.784" y="103.05" transform="rotate(-0 422.784 103.05)">FY01 / FY11 / FY15</text>
   </g>
   <g id="text_22">
    <text style="font-weight: 700; font-size: 8px; font-family: 'Arial', 'Source Han Sans SC'; text-anchor: start; fill: #a45b18" x="422.784" y="121.95" transform="rotate(-0 422.784 121.95)">12 架分别定位</text>
   </g>
   <g id="text_23">
    <text style="font-size: 7px; font-family: 'Arial', 'Source Han Sans SC'; text-anchor: start; fill: #555555" x="422.784" y="131.4" transform="rotate(-0 422.784 131.4)">同一观测批次 · 同步修正</text>
   </g>
   <g id="text_24">
    <text style="font-weight: 700; font-size: 7.7px; font-family: 'Arial', 'Source Han Sans SC'; text-anchor: middle; fill: #a45b18" x="412.128" y="207.857734" transform="rotate(-0 412.128 207.857734)">广播  →  定位  →  修正  →  复测</text>
   </g>
   <g id="text_25">
    <text style="font-size: 6.8px; font-family: 'Arial', 'Source Han Sans SC'; text-anchor: start" x="329.544" y="223.650406" transform="rotate(-0 329.544 223.650406)">三参考</text>
   </g>
   <g id="text_26">
    <text style="font-size: 6.8px; font-family: 'Arial', 'Source Han Sans SC'; text-anchor: start" x="388.152" y="223.633406" transform="rotate(-0 388.152 223.633406)">十二架接收机</text>
   </g>
   <g id="text_27">
    <text style="font-size: 7px; font-family: 'Arial', 'Source Han Sans SC'; text-anchor: middle; fill: #555555" x="272.0016" y="132.75" transform="rotate(-0 272.0016 132.75)">锁定</text>
   </g>
   <g id="PathCollection_7">
    <defs>
     <path id="m3429fd8f97" d="M 0 2.95804 
C 0.784481 2.95804 1.536938 2.646362 2.09165 2.09165 
C 2.646362 1.536938 2.95804 0.784481 2.95804 0 
C 2.95804 -0.784481 2.646362 -1.536938 2.09165 -2.09165 
C 1.536938 -2.646362 0.784481 -2.95804 0 -2.95804 
C -0.784481 -2.95804 -1.536938 -2.646362 -2.09165 -2.09165 
C -2.646362 -1.536938 -2.95804 -0.784481 -2.95804 0 
C -2.95804 0.784481 -2.646362 1.536938 -2.09165 2.09165 
C -1.536938 2.646362 -0.784481 2.95804 0 2.95804 
z
" style="stroke: #0072b2"/>
    </defs>
    <g clip-path="url(#pcac20446ea)">
     <use xlink:href="#m3429fd8f97" x="361.512" y="94.95" style="fill: #0072b2; stroke: #0072b2"/>
     <use xlink:href="#m3429fd8f97" x="318.888" y="186.75" style="fill: #0072b2; stroke: #0072b2"/>
     <use xlink:href="#m3429fd8f97" x="404.136" y="186.75" style="fill: #0072b2; stroke: #0072b2"/>
    </g>
   </g>
   <g id="PathCollection_8">
    <path d="M 350.856 167.607887 
C 351.865863 167.607887 352.834501 167.206664 353.548582 166.492582 
C 354.262664 165.778501 354.663887 164.809863 354.663887 163.8 
C 354.663887 162.790137 354.262664 161.821499 353.548582 161.107418 
C 352.834501 160.393336 351.865863 159.992113 350.856 159.992113 
C 349.846137 159.992113 348.877499 160.393336 348.163418 161.107418 
C 347.449336 161.821499 347.048113 162.790137 347.048113 163.8 
C 347.048113 164.809863 347.449336 165.778501 348.163418 166.492582 
C 348.877499 167.206664 349.846137 167.607887 350.856 167.607887 
L 350.856 167.607887 
z
" clip-path="url(#pcac20446ea)" style="fill: none; stroke: #a45b18"/>
   </g>
  </g>
 </g>
 <defs>
  <clipPath id="pcac20446ea">
   <rect x="7.2" y="7.2" width="532.8" height="270"/>
  </clipPath>
 </defs>
</svg>
